<svg xmlns="http://www.w3.org/2000/svg" data-name="Layer 2" viewBox="0 0 64 64"><path fill="#a2b2bc" d="M25.92 47.9a1 1 0 0 1-.3.71l-12.5 12.51a.99.99 0 0 1-.71.29 1.007 1.007 0 0 1-.71-.29l-8.48-8.49a.996.996 0 0 1 0-1.41l12.51-12.51a.996.996 0 0 1 1.41 0l3.53 3.54 1.42 1.42 3.53 3.53a.977.977 0 0 1 .3.7zm36.49-36.49a.99.99 0 0 1-.29.71L49.67 24.57a1.014 1.014 0 0 1-1.42 0l-3.53-3.54-1.41-1.41-3.54-3.54a.977.977 0 0 1-.3-.7 1 1 0 0 1 .3-.71L52.22 2.22a.996.996 0 0 1 1.41 0l8.49 8.48a1.007 1.007 0 0 1 .29.71z"/><path fill="#132d3f" d="m22.09 43.67-6.36 6.36 4.24 4.24-1.41 1.41-4.25-4.24-6.14 6.14-1.41-1.41 6.14-6.14-4.24-4.24 1.41-1.42 4.24 4.24L25.62 37.3l1.42 1.41-4.95 4.96zM52.49 13.26l4.25 4.24-1.41 1.42-4.25-4.25-6.36 6.36-4.95 4.95-1.42-1.41 4.96-4.95 6.36-6.36-4.24-4.24 1.41-1.42 4.24 4.24 6.09-6.09 1.41 1.42-6.09 6.09zM20.675 21.034l1.414-1.414 4.162 4.162-1.414 1.414z"/><path fill="#5e8091" d="M23.468 11.573a1 1 0 0 0-1.586-.23l-4.035 4.034-1.414-1.414a1 1 0 1 0-1.414 1.414l1.414 1.414-4.035 4.035a1 1 0 0 0 .23 1.587 8.042 8.042 0 0 0 9.461-1.38 8.045 8.045 0 0 0 1.38-9.46Z"/><path fill="#fcb322" d="m45.345 30.148-12.57-12.57a1.03 1.03 0 0 0-1.415 0L18.633 30.304a1 1 0 0 0 0 1.414l12.57 12.571a1 1 0 0 0 1.415 0l12.727-12.728a1 1 0 0 0 0-1.414Z"/><path fill="#132d3f" d="M36.231 26.69a6 6 0 1 0 0 8.486 6.005 6.005 0 0 0 0-8.485Z"/></svg>